<svg xmlns="http://www.w3.org/2000/svg" viewBox="0 0 64 64">
  <title>attach</title>
  <g id="Layer_8" data-name="Layer 8">
    <g>
      <path d="M56.73,4.38a15,15,0,0,0-21.16,0L30.48,9.48a1.27,1.27,0,0,0,1.79,1.79l5.09-5.09A12.42,12.42,0,1,1,54.93,23.74L19.65,59A8.33,8.33,0,1,1,7.87,47.24L38.08,17a4.54,4.54,0,1,1,6.43,6.43L20,47.91a1.27,1.27,0,0,0,1.79,1.79L46.3,25.25a7.08,7.08,0,1,0-10-10L6.07,45.45A10.87,10.87,0,0,0,21.45,60.82L56.73,25.54a15,15,0,0,0,0-21.16Z"/>
      <path d="M26.91,14.84a1.27,1.27,0,0,0-1.79,0L5.68,34.28a1.27,1.27,0,1,0,1.79,1.79L26.91,16.63A1.27,1.27,0,0,0,26.91,14.84Z"/>
      <path d="M28.73,11.73a1.27,1.27,0,0,0,0,2.54A1.27,1.27,0,0,0,28.73,11.73Z"/>
    </g>
  </g>
</svg>
