<svg id="Layer_1" data-name="Layer 1" xmlns="http://www.w3.org/2000/svg" viewBox="0 0 64 64">
  <title>creative</title>
  <g>
    <path d="M17.15,24.27l-2-.9a2.87,2.87,0,0,1-1.45-1.45l-.9-2a.82.82,0,0,0-1.5,0l-.9,2A2.87,2.87,0,0,1,9,23.38l-2,.9a.82.82,0,0,0,0,1.5l2,.9a2.87,2.87,0,0,1,1.45,1.45l.9,2a.82.82,0,0,0,1.5,0l.9-2a2.87,2.87,0,0,1,1.45-1.45l2-.9a.82.82,0,0,0,0-1.5Zm-2.67.89a4.51,4.51,0,0,0-2.27,2.27l-.15.33-.15-.33a4.51,4.51,0,0,0-2.27-2.27L9.32,25l.33-.15a4.51,4.51,0,0,0,2.27-2.27l.15-.33.15.33a4.51,4.51,0,0,0,2.27,2.27l.33.15Z"/>
    <path d="M57.54,9.38H35.42l-1.84-.82a2.87,2.87,0,0,1-1.45-1.45l-.9-2a.82.82,0,0,0-1.5,0l-.9,2a2.87,2.87,0,0,1-1.45,1.45l-1.84.82H6.46A2.46,2.46,0,0,0,4,11.84v4a.82.82,0,0,0,1.64,0v-4A.82.82,0,0,1,6.46,11H25.57l1.84.82a2.87,2.87,0,0,1,1.45,1.45l.9,2a.82.82,0,0,0,1.5,0l.9-2a2.87,2.87,0,0,1,1.45-1.45L35.42,11H57.54a.82.82,0,0,1,.82.82V41.57h-1.6l-1.86-.83a2.87,2.87,0,0,1-1.45-1.45l-.9-2a.82.82,0,0,0-1.5,0l-.89,2a2.87,2.87,0,0,1-1.45,1.45l-1.86.83H46V16.21a.82.82,0,0,0-.82-.82H34.3a.82.82,0,0,0-.82.82v5.53a.82.82,0,1,0,1.64,0V17h9.21v5.38H41.82a.82.82,0,0,0,0,1.64h2.51v3.31H40.47a.82.82,0,0,0,0,1.64h3.86v3.31H41.82a.82.82,0,0,0,0,1.64h2.51v3.31H40.47a.82.82,0,1,0,0,1.64h3.86v2.65H35.12V25a.82.82,0,1,0-1.64,0V41.57H28.87V24.7a.82.82,0,0,0-.12-.43L26.48,19.8h0l-2-4a.82.82,0,0,0-1.46,0l-4.3,8.49h0l0,.07v0l0,.08h0a.83.83,0,0,0,0,.1v0s0,0,0,.05v8a.82.82,0,0,0,1.64,0v-7.2h7v16h-7V36a.82.82,0,0,0-1.64,0v5.58h-13V19.08a.82.82,0,1,0-1.64,0V48.31a2.46,2.46,0,0,0,2.46,2.46h18L24,54.85h-3.9a.82.82,0,0,0-.82.82v2.88a.82.82,0,0,0,.82.82H43.93a.82.82,0,0,0,.82-.82V55.67a.82.82,0,0,0-.82-.82H40l-.47-4.08h18A2.46,2.46,0,0,0,60,48.31V11.84A2.46,2.46,0,0,0,57.54,9.38Zm-24.62,1a4.51,4.51,0,0,0-2.27,2.27l-.15.33-.15-.33-.09-.19a4.51,4.51,0,0,0-2.18-2.09l-.33-.15.33-.15a4.51,4.51,0,0,0,2.27-2.27l.15-.33.15.33a4.51,4.51,0,0,0,2.27,2.27l.33.15ZM20.77,23.88,22.24,21h3l1.46,2.89ZM49.39,42.24A4.51,4.51,0,0,0,51.66,40l.15-.33L52,40a4.51,4.51,0,0,0,2.27,2.27l.33.15-.33.15A4.51,4.51,0,0,0,52,44.8l-.15.33-.15-.33a4.51,4.51,0,0,0-2.27-2.27l-.33-.15ZM43.11,56.49v1.24H20.89V56.49ZM25.62,54.85l.47-4.08H37.91l.47,4.08Zm32.74-6.54a.82.82,0,0,1-.82.82H6.46a.82.82,0,0,1-.82-.82v-5.1H46.9l1.81.81a2.87,2.87,0,0,1,1.45,1.45l.9,2a.82.82,0,0,0,1.5,0l.9-2A2.87,2.87,0,0,1,54.89,44l1.81-.81h1.65v5.1Z"/>
  </g>
</svg>
