<svg xmlns="http://www.w3.org/2000/svg" viewBox="0 0 64 64">
  <title>facility</title>
  <g id="Layer_4" data-name="Layer 4">
    <g>
      <path d="M57.9,58.84h-.09l-4.3-.54a.91.91,0,0,1-.63-.36L50.21,54a1,1,0,0,1,.09-1.16l2.51-2.51A.94.94,0,0,1,54,50.25l3.94,2.68a.91.91,0,0,1,.36.63l.63,4.38a1,1,0,0,1-.27.72A2.11,2.11,0,0,1,57.9,58.84Zm-3.76-2.24,2.77.36-.36-2.86-3-2.06-1.52,1.52Z"/>
      <path d="M50.92,54.37h0a.81.81,0,0,1-.63-.27L33.92,37.73a.86.86,0,0,1,0-1.25L36.43,34a.81.81,0,0,1,.63-.27h0a.81.81,0,0,1,.63.27L54.06,50.34a.86.86,0,0,1,0,1.25L51.55,54.1A.81.81,0,0,1,50.92,54.37ZM35.8,37.1l15,15.12L52.09,51,37.15,35.85Z"/>
      <path d="M25.69,26.63a.81.81,0,0,1-.63-.27L9.85,11.15A.89.89,0,1,1,11.11,9.9L26.32,25.11a.86.86,0,0,1,0,1.25A.81.81,0,0,1,25.69,26.63Z"/>
      <path d="M49.76,35.13a2.44,2.44,0,0,1-1.88-.81l-3.13-3.13a2,2,0,0,1-.54-1.34,1.44,1.44,0,0,1,.54-1.16,1.8,1.8,0,0,0-1.61-.63A6.8,6.8,0,0,1,41.89,28a6.26,6.26,0,0,1-3.49-1.79L34,21.8a.86.86,0,0,1,0-1.25,4.3,4.3,0,0,0,.18-6.17c-3.58-3.58-5.64-3.58-9.57-3.58H23.45a.87.87,0,0,1-.89-.72.81.81,0,0,1,.54-1c7.7-3.49,13-3.94,18.16-1.52a14.57,14.57,0,0,1,5.19,3.85l3.22,3.22a6.26,6.26,0,0,1,1.79,3.49,4,4,0,0,1,.18,1.34A1.49,1.49,0,0,0,52.36,21a2.25,2.25,0,0,1,1.25-.54h0a1.77,1.77,0,0,1,1.25.54L58,24.13A2.58,2.58,0,0,1,58.8,26,2.44,2.44,0,0,1,58,27.88l-6.35,6.35A2.25,2.25,0,0,1,49.76,35.13ZM46,29.85,49.14,33a.86.86,0,0,0,1.25,0l6.35-6.35a.86.86,0,0,0,0-1.25l-3.13-3.13a1.5,1.5,0,0,1-1.25.54A2,2,0,0,1,51,22.25a3.29,3.29,0,0,1-1.16-2.77,5.14,5.14,0,0,0-.09-1.07,4.2,4.2,0,0,0-1.25-2.51l-3.22-3.22c-1.88-1.88-2.59-2.59-4.74-3.49C36.79,7.48,33,7.39,27.93,9c2.42.27,4.56,1.16,7.43,3.94a5.91,5.91,0,0,1,.36,8l3.85,3.85A4,4,0,0,0,42.07,26a5.14,5.14,0,0,0,1.07.09,3.29,3.29,0,0,1,2.77,1.16,2,2,0,0,1,.54,1.34A1.25,1.25,0,0,1,46,29.85Z"/>
      <path d="M9.94,58.84a3.67,3.67,0,0,1-2.51-1L6.19,56.61A3.58,3.58,0,0,1,5.11,54a3.79,3.79,0,0,1,1.07-2.68l27.74-31a.86.86,0,0,1,1.25,0l5.1,5.1a.86.86,0,0,1,0,1.25l-27.74,31a4,4,0,0,1-2.59,1.07Zm24.7-36.51L7.53,52.67A1.91,1.91,0,0,0,6.9,54.1a1.77,1.77,0,0,0,.54,1.25l1.25,1.16a1.77,1.77,0,0,0,1.25.54,1.82,1.82,0,0,0,1.34-.54L38.4,26.18Z"/>
      <path d="M25.15,32.45a.81.81,0,0,1-.63-.27L6.19,13.84a3.67,3.67,0,0,1,0-5.19L8.6,6.23a3.67,3.67,0,0,1,5.19,0l18,18a.86.86,0,0,1,0,1.25l-6,6.62a.75.75,0,0,1-.63.36Zm-14-25.5a2,2,0,0,0-1.34.54L7.44,9.9a1.95,1.95,0,0,0,0,2.68L25.15,30.21l4.74-5.37L12.54,7.48A2,2,0,0,0,11.2,6.95Z"/>
      <path d="M32.67,39.87a.81.81,0,0,1-.63-.27l-2.42-2.42a.86.86,0,0,1,0-1.25l5.91-6.62a.86.86,0,0,1,1.25,0l2.77,2.77a.86.86,0,0,1,0,1.25L33.21,39.7A.76.76,0,0,1,32.67,39.87Zm-1.16-3.31,1.16,1.16,5-5-1.52-1.43Z"/>
    </g>
  </g>
</svg>
