<svg xmlns="http://www.w3.org/2000/svg" viewBox="0 0 64 64">
  <title>finance</title>
  <g id="Layer_9" data-name="Layer 9">
    <g>
      <path d="M51.2,40.53a2.14,2.14,0,0,1,2.13,2.13,1.07,1.07,0,0,0,2.13,0,4.26,4.26,0,0,0-3.2-4.12V38.4a1.07,1.07,0,0,0-2.13,0v.15a4.26,4.26,0,0,0,1.07,8.38,2.13,2.13,0,1,1-2.13,2.13,1.07,1.07,0,1,0-2.13,0,4.26,4.26,0,0,0,3.2,4.12v.15a1.07,1.07,0,0,0,2.13,0v-.15A4.26,4.26,0,0,0,51.2,44.8a2.13,2.13,0,0,1,0-4.27Z"/>
      <path d="M50.13,23.47a1.07,1.07,0,0,0,0-2.13h-6.4a1.07,1.07,0,0,0,0,2.13Z"/>
      <path d="M42.67,45.87A1.07,1.07,0,0,0,41.6,44.8H32a1.07,1.07,0,1,0,0,2.13h9.6A1.07,1.07,0,0,0,42.67,45.87Z"/>
      <path d="M26.67,23.47h12.8a1.07,1.07,0,0,0,0-2.13H26.67a1.07,1.07,0,0,0,0,2.13Z"/>
      <path d="M58.67,8.53H21.33a1.07,1.07,0,1,0,0,2.13H58.67a3.2,3.2,0,0,1,3.2,3.2v48H19.2v-48a5.33,5.33,0,0,0-10.67,0V50.13a3.2,3.2,0,1,1-6.4,0v-48H44.8v3.2a1.07,1.07,0,1,0,2.13,0V1.07A1.07,1.07,0,0,0,45.87,0H1.07A1.07,1.07,0,0,0,0,1.07V50.13a5.33,5.33,0,0,0,10.67,0V13.87a3.2,3.2,0,0,1,6.4,0V53.33H11.73a1.07,1.07,0,1,0,0,2.13h5.33v7.47A1.07,1.07,0,0,0,18.13,64h44.8A1.07,1.07,0,0,0,64,62.93V13.87A5.34,5.34,0,0,0,58.67,8.53Z"/>
      <path d="M26.67,29.87H54.4a1.07,1.07,0,0,0,0-2.13H26.67a1.07,1.07,0,0,0,0,2.13Z"/>
      <path d="M32,51.2a1.07,1.07,0,1,0,0,2.13h8.53a1.07,1.07,0,0,0,0-2.13Z"/>
      <path d="M26.67,53.33h1.07a1.07,1.07,0,1,0,0-2.13H26.67a1.07,1.07,0,1,0,0,2.13Z"/>
      <path d="M26.67,46.93h1.07a1.07,1.07,0,1,0,0-2.13H26.67a1.07,1.07,0,1,0,0,2.13Z"/>
      <path d="M32,40.53h7.47a1.07,1.07,0,0,0,0-2.13H32a1.07,1.07,0,1,0,0,2.13Z"/>
      <path d="M26.67,40.53h1.07a1.07,1.07,0,1,0,0-2.13H26.67a1.07,1.07,0,1,0,0,2.13Z"/>
    </g>
  </g>
</svg>
