<svg xmlns="http://www.w3.org/2000/svg" viewBox="0 0 64 64">
  <title>hr</title>
  <g id="Layer_10" data-name="Layer 10">
    <path d="M51.67,40.85a8.49,8.49,0,0,0,4.08-7.25V27.1a8.5,8.5,0,0,0-7.18-8.39V12.43a.93.93,0,0,0-.93-.93h-10V7.75A6.06,6.06,0,0,0,31.57,1.7H17a6.06,6.06,0,0,0-6.05,6.05V11.5H.93a.93.93,0,0,0-.93.93V45.61a.93.93,0,0,0,.93.93H9.18a.93.93,0,0,0,0-1.87H1.87V25.81a11.33,11.33,0,0,0,7.2,4.88v1a3,3,0,0,0,6,0v-.79h7.22a.93.93,0,0,0,0-1.87H15.05V26.76a.93.93,0,0,0-.93-.93H10a.93.93,0,0,0-.93.93v2a9.48,9.48,0,0,1-7.2-9.19V13.37H46.7v5.26h-.17l-.19,0-.23,0-.18,0-.23,0-.18,0-.24.05-.16,0-.25.07-.15,0-.28.09-.11,0q-.38.14-.75.32l-.08,0-.28.15-.11.06-.24.14-.13.08-.21.14-.13.09-.2.14-.13.1-.19.15-.13.11-.18.15-.13.12-.17.16-.12.12-.16.16-.12.13-.15.17-.11.14-.14.18-.11.14-.13.18-.1.15-.12.19-.09.15-.11.19-.09.16-.1.2-.08.16-.09.2-.07.17-.08.21-.06.17-.07.21-.06.17-.06.22L39,25l-.05.23,0,.18c0,.08,0,.16,0,.24l0,.17c0,.08,0,.17,0,.25s0,.11,0,.16,0,.19,0,.28,0,.09,0,.14,0,.28,0,.43v1.83a9.5,9.5,0,0,1-1.31.12V26.76a.93.93,0,0,0-.93-.93H32.42a.93.93,0,0,0-.93.93v2.29h-6.1a.93.93,0,0,0,0,1.87h6.1v.79a3,3,0,0,0,6,0v-.8a11.33,11.33,0,0,0,1.31-.1V33.6q0,.21,0,.42c0,.05,0,.11,0,.16s0,.17,0,.25,0,.13,0,.2,0,.14,0,.21l0,.22,0,.18.05.24,0,.16.07.25,0,.14.09.27,0,.11.11.29,0,.08.14.32,0,0a8.54,8.54,0,0,0,3.29,3.69,17.48,17.48,0,0,0-6.91,3.83H12.29a.93.93,0,0,0,0,1.87H34.16a15.58,15.58,0,0,0-3.64,9.87v4.95a.93.93,0,0,0,.93.93h7.12a.93.93,0,0,0,0-1.87H32.39v-4a13.83,13.83,0,0,1,4.48-10l.09-.08L37.3,46l0,0q.34-.3.7-.58l.13-.1.19-.14.19-.14.08-.06a15.85,15.85,0,0,1,4.32-2.15l1.52,2.95-2,8.8a.93.93,0,0,0,.28.9L46.63,59a.93.93,0,0,0,1.26,0l3.92-3.59a.93.93,0,0,0,.28-.9l-2-8.8,1.52-2.95a15.81,15.81,0,0,1,6.07,3.58,13.83,13.83,0,0,1,4.48,10v4H41.69a.93.93,0,0,0,0,1.87H63.07a.93.93,0,0,0,.93-.93V56.42C64,49.2,58.68,42.84,51.67,40.85Zm-40.73-11V27.7h2.24v4a1.12,1.12,0,0,1-2.24,0V29.9ZM32.41,11.5H16.16V8.42A1.55,1.55,0,0,1,17.7,6.87H30.86a1.55,1.55,0,0,1,1.55,1.55V11.5Zm3.34,0H34.28V8.42A3.42,3.42,0,0,0,30.86,5H17.7a3.42,3.42,0,0,0-3.41,3.41V11.5H12.81V7.75A4.19,4.19,0,0,1,17,3.57H31.57a4.19,4.19,0,0,1,4.18,4.18ZM35.59,30v1.73a1.12,1.12,0,0,1-2.24,0v-4h2.24V30Zm5.05-2.89a6.62,6.62,0,0,1,6.28-6.61h.68a6.62,6.62,0,0,1,6.28,6.61v2.23c-3-.56-4.23-3.62-4.29-3.76a.94.94,0,0,0-1.69-.12c-.08.15-2,3.57-7.25,3.94V27.09Zm9.5,27.33-2.89,2.64-2.89-2.64,1.81-7.88h2.14ZM44.8,42.32l.24,0,.17,0,.31,0,.4,0,.16,0h0l.42,0h1.37l.49,0,.18,0,.41,0,.3,0,.18,0,.24,0L48.5,44.68H46Zm2.85-2.11H47a6.68,6.68,0,0,1-6.37-6.28c0-.11,0-.22,0-.33V31.25a11.28,11.28,0,0,0,7.94-3.62,7.51,7.51,0,0,0,5.3,3.58V33.6A6.63,6.63,0,0,1,47.65,40.2Z"/>
  </g>
</svg>
