<svg xmlns="http://www.w3.org/2000/svg" viewBox="0 0 64 64">
  <title>resources</title>
  <g id="Layer_3" data-name="Layer 3">
    <g>
      <path d="M49.07,59.73H14.93a1.07,1.07,0,0,1-1.07-1.07V23l-4.7,3.45a1.07,1.07,0,0,1-1.47-.21L.22,16.65a1.07,1.07,0,0,1,.19-1.5L14.28,4.49a1.07,1.07,0,0,1,.65-.22H22.4a1.07,1.07,0,0,1,1.07,1.07,8.53,8.53,0,0,0,17.07,0A1.07,1.07,0,0,1,41.6,4.27h7.47a1.06,1.06,0,0,1,.65.22L63.58,15.16a1.06,1.06,0,0,1,.19,1.5l-7.47,9.6a1.07,1.07,0,0,1-1.47.21L50.13,23V58.67A1.07,1.07,0,0,1,49.07,59.73ZM16,57.6H48V20.91A1.07,1.07,0,0,1,49.7,20l5.56,4.08,6.17-7.93L48.7,6.4H42.61a10.67,10.67,0,0,1-21.23,0H15.3L2.57,16.19l6.17,7.93L14.3,20a1.07,1.07,0,0,1,1.7.86Z"/>
      <rect x="28.8" y="9.6" width="6.4" height="2.13"/>
      <path d="M32,7.95a31.42,31.42,0,0,1-9.94-1.6l.68-2a29.42,29.42,0,0,0,18.52,0l.68,2A31.46,31.46,0,0,1,32,7.95Z"/>
    </g>
    <path d="M31.85,21.5a7.5,7.5,0,0,0,.11,15h.38a.1.1,0,0,0,.1-.1v-4a0,0,0,0,1,0,0,1.86,1.86,0,0,0,1.68.95c1.74,0,2.62-1.52,2.62-3.32,0-1.59-.76-3-2.53-3a2,2,0,0,0-1.79.88,0,0,0,0,1,0,0c0-.16,0-.46,0-.61a.08.08,0,0,0-.08-.08H29.94a0,0,0,0,1,0,0c0-1.57.68-1.94,2.08-2a.08.08,0,0,0,.08-.08V23.82a.08.08,0,0,0-.08-.08c-2.29,0-3.87,1.08-3.88,3.42a0,0,0,0,1,0,0h-1a.08.08,0,0,0-.07,0,4.66,4.66,0,0,0-.25,1.05.08.08,0,0,0,.08.09h1.22a0,0,0,0,1,0,0v4.1a.08.08,0,0,0,0,.05,5,5,0,0,0,1.67,1.22.08.08,0,0,0,.11-.07V28.41a0,0,0,0,1,0,0h.66a0,0,0,0,1,0,0v6.11a0,0,0,0,1,0,0A5.72,5.72,0,0,1,32,23.28a5.79,5.79,0,0,1,5.76,5.85,5.91,5.91,0,0,1-4.27,5.78.1.1,0,0,0-.07.1v1.24a.1.1,0,0,0,.12.1A7.5,7.5,0,0,0,31.85,21.5Zm2,6.76c1.17,0,1.42,1.16,1.42,2s-.29,1.82-1.34,1.82c-.83,0-1.38-.88-1.38-1.88S33.05,28.26,33.86,28.26Z" style="fill-rule: evenodd"/>
  </g>
</svg>
