<svg xmlns="http://www.w3.org/2000/svg" viewBox="0 0 64 64">
  <title>tech</title>
  <g id="Layer_2" data-name="Layer 2">
    <path d="M57.18,26.66A25.74,25.74,0,0,0,37.32,6.75a2.81,2.81,0,0,0-2.67-2h-5.3a2.81,2.81,0,0,0-2.67,2A25.74,25.74,0,0,0,6.82,26.66a2.81,2.81,0,0,0-2,2.69v5.3a2.81,2.81,0,0,0,2.06,2.7A25.83,25.83,0,0,0,15,51.24a.87.87,0,0,0,1.15-1.31A24.09,24.09,0,0,1,8.67,37.46h7.69A16.61,16.61,0,0,0,26.55,47.59c0,.06,0,.13,0,.19v7.49a23.75,23.75,0,0,1-7.14-2.95.87.87,0,0,0-.92,1.48,25.48,25.48,0,0,0,8.14,3.27,2.81,2.81,0,0,0,2.72,2.12h5.3a2.81,2.81,0,0,0,2.72-2.12A25.75,25.75,0,0,0,57.14,37.35a2.81,2.81,0,0,0,2.06-2.7v-5.3A2.81,2.81,0,0,0,57.18,26.66Zm-28.89-19a1.07,1.07,0,0,1,1.06-1.06h5.3a1.07,1.07,0,0,1,1.06,1.06v8.61a1.07,1.07,0,0,1-1.06,1.06h-5.3a1.07,1.07,0,0,1-1.06-1.06Zm-11,27a1.06,1.06,0,0,1-.51.91l-.09,0a.87.87,0,0,0-.23.11l-.23,0H7.61a1.07,1.07,0,0,1-1.06-1.06v-5.3a1.07,1.07,0,0,1,1.06-1.06h8.61a1.07,1.07,0,0,1,1.06,1.06ZM35.72,56.39h0a1.07,1.07,0,0,1-1.06,1.06h-5.3a1.07,1.07,0,0,1-1.06-1.06V47.78a1.06,1.06,0,0,1,.06-.34.87.87,0,0,0,.08-.18,1.06,1.06,0,0,1,.93-.55h5.3a1.07,1.07,0,0,1,1.06,1.06ZM36.8,46a2.8,2.8,0,0,0-2.14-1h-5.3a2.8,2.8,0,0,0-2.14,1A14.87,14.87,0,0,1,18,36.83a2.8,2.8,0,0,0,1-2.18v-5.3a2.8,2.8,0,0,0-1.08-2.21,14.82,14.82,0,0,1,4.36-6.46.87.87,0,1,0-1.14-1.32,16.56,16.56,0,0,0-4.86,7.19H8.63a24,24,0,0,1,17.91-18v7.68a16.55,16.55,0,0,0-2.7,1.22A.87.87,0,1,0,24.7,19a14.8,14.8,0,0,1,2.4-1.09A2.8,2.8,0,0,0,29.35,19h5.3A2.8,2.8,0,0,0,36.9,17.9a14.87,14.87,0,0,1,9.16,9.24A2.8,2.8,0,0,0,45,29.35v5.3a2.8,2.8,0,0,0,1,2.18A14.79,14.79,0,0,1,36.8,46ZM49,48.84a23.85,23.85,0,0,1-11.53,6.43V47.78c0-.06,0-.13,0-.19A16.61,16.61,0,0,0,47.64,37.45h7.69A23.85,23.85,0,0,1,49,48.84Zm8.47-14.19a1.07,1.07,0,0,1-1.06,1.06H47.78a1.07,1.07,0,0,1-1.06-1.06v-5.3a1.07,1.07,0,0,1,1.06-1.06h2.41a.87.87,0,1,0,0-1.74H47.7a16.61,16.61,0,0,0-10.24-10.3V8.57a24,24,0,0,1,17.91,18h-1.6a.87.87,0,1,0,0,1.74h2.62a1.07,1.07,0,0,1,1.06,1.06Z"/>
  </g>
</svg>
