<svg xmlns="http://www.w3.org/2000/svg" viewBox="0 0 64 64">
  <title>web</title>
  <g id="Layer_6" data-name="Layer 6">
    <g>
      <path d="M57.77,7.93H6.23a.85.85,0,0,0-.85.85V55.22a.85.85,0,0,0,.85.85H57.77a.85.85,0,0,0,.85-.85V46.16a.85.85,0,0,0-1.7,0v8.21H7.08V16.42H56.92V42.76a.85.85,0,1,0,1.7,0v-34a.85.85,0,0,0-.85-.85ZM7.08,9.63H38.51v5.1H7.08Zm33.13,5.1V9.63H56.92v5.1Zm0,0"/>
      <path d="M48.6,11.27a.91.91,0,1,0,.91.91.91.91,0,0,0-.91-.91Zm0,0"/>
      <path d="M44,11.27a.91.91,0,1,0,.91.91.91.91,0,0,0-.91-.91Zm0,0"/>
      <path d="M53.24,11.27a.91.91,0,1,0,.91.91.91.91,0,0,0-.91-.91Zm0,0"/>
      <path d="M22.23,31a.85.85,0,0,0,.71-.6l2-6.52a.85.85,0,0,0-1.63-.49L21.86,28l-1.35-2.26a.85.85,0,0,0-1.46,0L17.7,28l-1.4-4.68a.85.85,0,1,0-1.63.49l2,6.52a.85.85,0,0,0,.71.6h.11a.85.85,0,0,0,.73-.41l1.61-2.69,1.61,2.69a.85.85,0,0,0,.83.41Zm0,0"/>
      <path d="M28.76,31h.11a.85.85,0,0,0,.73-.41l1.61-2.69,1.61,2.69a.85.85,0,0,0,1.54-.19l2-6.52a.85.85,0,1,0-1.63-.49L33.28,28l-1.35-2.26a.85.85,0,0,0-1.46,0L29.12,28l-1.4-4.68a.85.85,0,0,0-1.63.49l2,6.52a.85.85,0,0,0,.71.6Zm0,0"/>
      <path d="M47.16,22.8a.85.85,0,0,0-1.06.57L44.7,28l-1.35-2.26a.85.85,0,0,0-1.46,0L40.54,28l-1.4-4.68a.85.85,0,1,0-1.63.49l2,6.52a.85.85,0,0,0,1.54.19l1.61-2.69,1.61,2.69A.85.85,0,0,0,45,31h.11a.85.85,0,0,0,.71-.6l2-6.52a.85.85,0,0,0-.57-1.06Zm0,0"/>
      <path d="M20.86,35.8A.85.85,0,0,0,20,35H15.48a.85.85,0,0,0-.85.85v4.53a.85.85,0,0,0,.85.85H20a.85.85,0,0,0,.85-.85Zm-1.7,3.68H16.33V36.65h2.83Zm0,0"/>
      <path d="M20,42.88H15.48a.85.85,0,0,0-.85.85v4.53a.85.85,0,0,0,.85.85H20a.85.85,0,0,0,.85-.85V43.73a.85.85,0,0,0-.85-.85Zm-.85,4.53H16.33V44.58h2.83Zm0,0"/>
      <path d="M46.92,37.22h-3.4a.85.85,0,1,0,0,1.7h3.4a.85.85,0,0,0,0-1.7Zm0,0"/>
      <path d="M40.12,37.22H23.41a.85.85,0,1,0,0,1.7H40.12a.85.85,0,0,0,0-1.7Zm0,0"/>
      <path d="M46.92,45.15h-3.4a.85.85,0,1,0,0,1.7h3.4a.85.85,0,0,0,0-1.7Zm0,0"/>
      <path d="M40.12,45.15H23.41a.85.85,0,1,0,0,1.7H40.12a.85.85,0,0,0,0-1.7Zm0,0"/>
    </g>
  </g>
</svg>
