<svg xmlns="http://www.w3.org/2000/svg" viewBox="0 0 64 64">
  <title>worship-tech</title>
  <g id="Layer_5" data-name="Layer 5">
    <path d="M32,10.5A14.83,14.83,0,1,0,46.83,25.33,14.84,14.84,0,0,0,32,10.5Zm0,28.19A13.36,13.36,0,1,1,45.36,25.33,13.38,13.38,0,0,1,32,38.69Zm0-26.24a3.16,3.16,0,1,0,3.16,3.16A3.16,3.16,0,0,0,32,12.46Zm0,4.86a1.7,1.7,0,1,1,1.7-1.7,1.7,1.7,0,0,1-1.7,1.7Zm0,14.57A3.16,3.16,0,1,0,35.16,35,3.16,3.16,0,0,0,32,31.88Zm0,4.86A1.7,1.7,0,1,1,33.7,35a1.7,1.7,0,0,1-1.7,1.7Zm6.87-15.12a3.16,3.16,0,1,0-2.23-.92,3.15,3.15,0,0,0,2.23.92Zm0-4.85a1.7,1.7,0,1,1-1.2.5,1.69,1.69,0,0,1,1.2-.5ZM22.9,30a3.16,3.16,0,1,0,4.47,0,3.16,3.16,0,0,0-4.47,0Zm1,3.43a1.7,1.7,0,1,1,2.4,0,1.7,1.7,0,0,1-2.4,0ZM41.71,22.17a3.16,3.16,0,1,0,3.16,3.16,3.16,3.16,0,0,0-3.16-3.16Zm0,4.86a1.7,1.7,0,1,1,1.7-1.7,1.7,1.7,0,0,1-1.7,1.7Zm-16.27-1.7a3.16,3.16,0,1,0-3.16,3.16,3.16,3.16,0,0,0,3.16-3.16Zm-3.16-1.7a1.7,1.7,0,1,1-1.7,1.7,1.7,1.7,0,0,1,1.7-1.7ZM36.63,30a3.16,3.16,0,1,0,4.47,0,3.16,3.16,0,0,0-4.47,0Zm1,3.43a1.7,1.7,0,1,1,2.4,0,1.7,1.7,0,0,1-2.4,0Zm-3.43-5.84a3.16,3.16,0,1,0-2.23.93,3.16,3.16,0,0,0,2.23-.93ZM32,23.63a1.7,1.7,0,1,1-1.2.5,1.69,1.69,0,0,1,1.2-.5Zm-9.1-7.4a3.16,3.16,0,1,0,4.47,0,3.14,3.14,0,0,0-4.47,0Zm2.23.54a1.7,1.7,0,1,1-1.2.5,1.69,1.69,0,0,1,1.2-.5Zm27.28,1.76H49.11C47.92,11,40.7,5.17,32,5.17S16.08,11,14.89,18.53h-3.3a.73.73,0,0,0-.73.73v22.8a.73.73,0,0,0,.23.53L15.6,46.9h-.19a.73.73,0,0,0-.7.51L11.41,57.88a.73.73,0,0,0,.7,1H51.89a.73.73,0,0,0,.7-1L49.28,47.41a.73.73,0,0,0-.7-.51h-.19l4.52-4.31a.73.73,0,0,0,.23-.53V19.26a.73.73,0,0,0-.73-.73ZM17.72,46.9l-5.41-5.15V22.42h2.37V40.23a.73.73,0,0,0,.22.53l3.23,3.12a.73.73,0,0,0,.51.21H45.36a.73.73,0,0,0,.51-.21l3.23-3.12a.73.73,0,0,0,.22-.53V22.42h2.37V41.75L46.28,46.9ZM32,6.63c7.5,0,13.81,4.68,15.42,10.93a.73.73,0,0,0-1.21.8,15.66,15.66,0,0,1,1.61,7A15.82,15.82,0,0,1,26.61,40.2l-.07,0A15.82,15.82,0,1,1,42.44,13.44a.73.73,0,0,0,1-1.1A17.28,17.28,0,0,0,16.6,17.49C18.25,11.27,24.53,6.63,32,6.63ZM51.68,21h-2V20h2ZM16.14,38.68l3.32,2.76a.73.73,0,0,0,.47.17h6.26a17.28,17.28,0,0,0,11.61,0h6.26a.73.73,0,0,0,.47-.17l3.32-2.76v1.25l-2.8,2.7H18.94l-2.8-2.7Zm4.05,1.47-4.05-3.36V32.2a17.39,17.39,0,0,0,7,7.94Zm27.66-3.36L43.8,40.14H40.89a17.39,17.39,0,0,0,7-7.94ZM14.27,21h-2V20h2ZM48.05,48.36l2.84,9H13.11l2.84-9ZM25.3,55.92H38.7a.73.73,0,0,0,.73-.73v-4.6a.73.73,0,0,0-.73-.73H25.3a.73.73,0,0,0-.73.73v4.6a.73.73,0,0,0,.73.73ZM26,54.46V51.31h4.82L27.7,54.46Zm8.36-3.14a.73.73,0,0,0,1.17.85l.85-.85H38v3.14H33.26l.64-.64a.73.73,0,1,0-1-1l-1.67,1.67H29.77l3.14-3.14Zm0,0"/>
  </g>
</svg>
